# xmcd CD database file
#
# Track frame offsets:
#	150
#	12960
#	27130
#	47742
#	68327
#	87552
#	111390
#	138967
#	159182
#
# Disc length: 2385 seconds
#
# Revision: 2
# Processed by: cddbd v1.4PL0 Copyright (c) Steve Scherf et al.
# Submitted via: CDex 1.51
#
DISCID=68094f09
DTITLE=Various Artist - Country Dance Mixes
DYEAR=1993
DGENRE=Country
TTITLE0=What A Way To Go (Ray Kennedy)
TTITLE1=No Way Jose (Ray Kennedy)
TTITLE2=Life's A Dance (John Michael Montgomery)
TTITLE3=Beer And Bones (John Michael Montgomery)
TTITLE4=All She Ever Wants Is More (Ray Kennedy)
TTITLE5=Complicated (Ray Kennedy)
TTITLE6=Queen Of Memphis (Confederate Railroad)
TTITLE7=Guitar Man (Ray Kennedy)
TTITLE8=Trashy Women (Confederate Railroad)
EXTD=YEAR: 1993
EXTT0=
EXTT1=
EXTT2=
EXTT3=
EXTT4=
EXTT5=
EXTT6=
EXTT7=
EXTT8=
PLAYORDER=
